<?xml version="1.0" encoding="utf-8" ?>
<svg baseProfile="full" height="1080" version="1.1" width="1920" xmlns="http://www.w3.org/2000/svg" xmlns:ev="http://www.w3.org/2001/xml-events" xmlns:xlink="http://www.w3.org/1999/xlink"><defs><style type="text/css"><![CDATA[
        @import url('https://fonts.googleapis.com/css2?family=Inter:wght@400;600&display=swap');
        text { font-family: 'Inter', sans-serif; fill: #0f172a; }
        .header { font-size: 32px; font-weight: 600; }
        .section { font-size: 20px; font-weight: 600; }
        .body { font-size: 16px; weight: 400; }
        .dense { font-size: 14px; }
        .meta { font-size: 12px; fill: #64748b; }
        .accent { fill: #0f766e; }
        .critical { fill: #b91c1c; }
    ]]></style></defs><rect fill="#f3f4f6" height="1080" width="1920" x="0" y="0" /><rect fill="#ffffff" height="64" stroke="#e5e7eb" stroke-width="1" width="1920" x="0" y="0" /><text class="header" font-size="24px" x="24" y="42">RIYADH AIRPORT OPERATIONS :: GLOBAL UI STATES</text><text class="meta" x="1470" y="42">Resolution: 1920x1080 | Version: 2026-01-10 07:23:03 UTC | Mode: POLAR - LOCKED</text><line stroke="#e5e7eb" x1="960.0" x2="960.0" y1="64" y2="1080" /><line stroke="#e5e7eb" x1="0" x2="1920" y1="540.0" y2="540.0" /><text class="section" x="20" y="100">1. LOADING STATE</text><rect fill="#ffffff" height="200" stroke="#e5e7eb" width="300" x="50" y="150" /><rect fill="#e5e7eb" height="20" width="200" x="70" y="170" /><rect fill="#f3f4f6" height="10" width="260" x="70" y="210" /><rect fill="#f3f4f6" height="10" width="260" x="70" y="230" /><rect fill="#f3f4f6" height="10" width="180" x="70" y="250" /><text class="section" x="980.0" y="100">2. EMPTY STATE</text><rect fill="#ffffff" height="200" stroke="#e5e7eb" width="300" x="1010.0" y="150" /><circle cx="1160.0" cy="220" fill="none" r="30" stroke="#64748b" stroke-dasharray="4,4" /><text class="body" x="1110.0" y="280">No Items Found</text><text class="section" x="20" y="590.0">3. ERROR STATE</text><rect fill="#fef2f2" height="200" stroke="#b91c1c" width="300" x="50" y="640.0" /><text fill="#b91c1c" font-size="48px" font-weight="bold" x="190" y="700.0">!</text><text class="body" fill="#b91c1c" x="130" y="760.0">Connection Failed</text><text class="section" x="980.0" y="590.0">4. REDUCED MOTION</text><rect fill="#ffffff" height="200" stroke="#e5e7eb" width="300" x="1010.0" y="640.0" /><rect fill="#0f766e" height="30" rx="15" width="60" x="1110.0" y="720.0" /><circle cx="1155.0" cy="735.0" fill="#ffffff" r="12" /><text class="body" x="1100.0" y="780.0">Animations: OFF</text><text class="meta" x="1470" y="42">Resolution: 1920x1080 | Version: 2026-01-10 07:23:03 UTC | Mode: POLAR - LOCKED</text></svg>