<?xml version="1.0" encoding="utf-8" ?>
<svg baseProfile="full" height="1080" version="1.1" width="1920" xmlns="http://www.w3.org/2000/svg" xmlns:ev="http://www.w3.org/2001/xml-events" xmlns:xlink="http://www.w3.org/1999/xlink"><defs><style type="text/css"><![CDATA[
        @import url('https://fonts.googleapis.com/css2?family=Inter:wght@400;600&display=swap');
        text { font-family: 'Inter', sans-serif; fill: #0f172a; }
        .muted { fill: #64748b; }
        .accent { fill: #0f766e; font-weight: bold; }
        .header { font-size: 24px; font-weight: 600; }
        .label { font-size: 14px; }
        .value { font-size: 16px; font-weight: 600; }
    ]]></style></defs><rect fill="#f3f4f6" height="1080" width="1920" x="0" y="0" /><rect fill="#ffffff" height="64" stroke="#e5e7eb" stroke-width="1" width="1920" x="0" y="0" /><text class="header" x="20" y="40">AIRPORT COMMAND :: /ops - OPERATIONS [Polar]</text><rect fill="#ffffff" height="696" stroke="#e5e7eb" stroke-width="1" width="420" x="1500" y="64" /><text class="accent" x="1520" y="90">OPERATIONS QUEUE</text><rect fill="#f3f4f6" height="696" stroke="#e5e7eb" stroke-width="1" width="1500" x="0" y="64" /><text class="muted" x="20" y="90">LIVE MAP / SPATIAL VIEW</text><circle cx="400" cy="300" fill="#15803d" r="10" stroke="#0f172a" stroke-width="2" /><text class="label" x="420" y="305">VISITOR</text><rect fill="#ca8a04" height="20" stroke="#0f172a" stroke-width="2" width="20" x="600" y="400" /><text class="label" x="630" y="415">VEHICLE</text><rect fill="#b91c1c" height="15" rx="5" ry="5" stroke="#0f172a" stroke-width="2" width="15" x="500" y="250" /><text class="label" x="525" y="262">ROBOT</text><rect fill="#ffffff" height="320" stroke="#e5e7eb" stroke-width="1" width="1920" x="0" y="760" /><text class="accent" x="20" y="790">INTELLIGENT WORKBENCH</text><rect fill="none" height="260" stroke="#0f766e" stroke-dasharray="5,5" stroke-width="2" width="480" x="1420" y="800" /><line stroke="#e5e7eb" x1="1420" x2="1900" y1="800" y2="1060" /><line stroke="#e5e7eb" x1="1900" x2="1420" y1="800" y2="1060" /><text class="accent" font-size="20px" x="1500" y="910">LIVE CAMERA FEED (PLACEHOLDER)</text></svg>