<?xml version="1.0" encoding="utf-8" ?>
<svg baseProfile="full" height="1080" version="1.1" width="1920" xmlns="http://www.w3.org/2000/svg" xmlns:ev="http://www.w3.org/2001/xml-events" xmlns:xlink="http://www.w3.org/1999/xlink"><defs><style type="text/css"><![CDATA[
        @import url('https://fonts.googleapis.com/css2?family=Inter:wght@400;600&display=swap');
        text { font-family: 'Inter', sans-serif; fill: #0f172a; }
        .header { font-size: 32px; font-weight: 600; }
        .section { font-size: 20px; font-weight: 600; }
        .body { font-size: 16px; weight: 400; }
        .dense { font-size: 14px; }
        .meta { font-size: 12px; fill: #64748b; }
        .accent { fill: #0f766e; }
        .critical { fill: #b91c1c; }
    ]]></style></defs><rect fill="#f3f4f6" height="1080" width="1920" x="0" y="0" /><rect fill="#ffffff" height="64" stroke="#e5e7eb" stroke-width="1" width="1920" x="0" y="0" /><text class="header" font-size="24px" x="24" y="42">RIYADH AIRPORT OPERATIONS :: /simulation - ENTITY CONTROL</text><text class="meta" x="1470" y="42">Resolution: 1920x1080 | Version: 2026-01-10 07:16:51 UTC | Mode: POLAR (LOCKED)</text><text class="header" x="20" y="100">ENTITY INJECTOR CONTROL</text><rect fill="#ffffff" height="600" stroke="#e5e7eb" width="486.6666666666667" x="20.0" y="150" /><text class="section" x="40.0" y="200">VISITOR INJECTION</text><rect fill="#f3f4f6" height="40" stroke="#e5e7eb" width="446.6666666666667" x="40.0" y="250" /><text class="dense" x="50.0" y="275">ID / Name</text><rect fill="#f3f4f6" height="40" stroke="#e5e7eb" width="446.6666666666667" x="40.0" y="310" /><text class="dense" x="50.0" y="335">Location (X, Y)</text><rect fill="#0f766e" height="60" rx="4" width="446.6666666666667" x="40.0" y="500" /><text fill="#ffffff" font-size="20px" font-weight="bold" x="60.0" y="540">INJECT EVENT</text><rect fill="#ffffff" height="600" stroke="#e5e7eb" width="486.6666666666667" x="526.6666666666667" y="150" /><text class="section" x="546.6666666666667" y="200">VEHICLE INJECTION</text><rect fill="#f3f4f6" height="40" stroke="#e5e7eb" width="446.6666666666667" x="546.6666666666667" y="250" /><text class="dense" x="556.6666666666667" y="275">ID / Name</text><rect fill="#f3f4f6" height="40" stroke="#e5e7eb" width="446.6666666666667" x="546.6666666666667" y="310" /><text class="dense" x="556.6666666666667" y="335">Location (X, Y)</text><rect fill="#0f766e" height="60" rx="4" width="446.6666666666667" x="546.6666666666667" y="500" /><text fill="#ffffff" font-size="20px" font-weight="bold" x="566.6666666666667" y="540">INJECT EVENT</text><rect fill="#ffffff" height="600" stroke="#e5e7eb" width="486.6666666666667" x="1033.3333333333335" y="150" /><text class="section" x="1053.3333333333335" y="200">ROBOT INJECTION</text><rect fill="#f3f4f6" height="40" stroke="#e5e7eb" width="446.6666666666667" x="1053.3333333333335" y="250" /><text class="dense" x="1063.3333333333335" y="275">ID / Name</text><rect fill="#f3f4f6" height="40" stroke="#e5e7eb" width="446.6666666666667" x="1053.3333333333335" y="310" /><text class="dense" x="1063.3333333333335" y="335">Location (X, Y)</text><rect fill="#0f766e" height="60" rx="4" width="446.6666666666667" x="1053.3333333333335" y="500" /><text fill="#ffffff" font-size="20px" font-weight="bold" x="1073.3333333333335" y="540">INJECT EVENT</text><rect fill="#f3f4f6" height="1016" stroke="#e5e7eb" width="350" x="1570" y="64" /><text class="section" x="1590" y="100">AUDIT LOG</text><text class="dense" x="1590" y="150">[10:42:0] Event Dispatched</text><text class="dense" x="1590" y="180">[10:42:5] Event Dispatched</text><text class="dense" x="1590" y="210">[10:42:10] Event Dispatched</text><text class="dense" x="1590" y="240">[10:42:15] Event Dispatched</text><text class="dense" x="1590" y="270">[10:42:20] Event Dispatched</text><text class="dense" x="1590" y="300">[10:42:25] Event Dispatched</text><text class="dense" x="1590" y="330">[10:42:30] Event Dispatched</text><text class="dense" x="1590" y="360">[10:42:35] Event Dispatched</text><text class="dense" x="1590" y="390">[10:42:40] Event Dispatched</text><text class="dense" x="1590" y="420">[10:42:45] Event Dispatched</text></svg>