<?xml version="1.0" encoding="utf-8" ?>
<svg baseProfile="full" height="1080" version="1.1" width="1920" xmlns="http://www.w3.org/2000/svg" xmlns:ev="http://www.w3.org/2001/xml-events" xmlns:xlink="http://www.w3.org/1999/xlink"><defs><style type="text/css"><![CDATA[
        @import url('https://fonts.googleapis.com/css2?family=Inter:wght@400;600&display=swap');
        text { font-family: 'Inter', sans-serif; fill: #0f172a; }
        .header { font-size: 32px; font-weight: 600; }
        .section { font-size: 20px; font-weight: 600; }
        .body { font-size: 16px; weight: 400; }
        .dense { font-size: 14px; }
        .meta { font-size: 12px; fill: #64748b; }
        .accent { fill: #0f766e; }
        .critical { fill: #b91c1c; }
    ]]></style></defs><rect fill="#f3f4f6" height="1080" width="1920" x="0" y="0" /><rect fill="#ffffff" height="64" stroke="#e5e7eb" stroke-width="1" width="1920" x="0" y="0" /><text class="header" font-size="24px" x="24" y="42">RIYADH AIRPORT OPERATIONS :: /ops - OPERATION COMMAND</text><text class="meta" x="1470" y="42">Resolution: 1920x1080 | Version: 2026-01-10 07:16:51 UTC | Mode: POLAR (LOCKED)</text><rect fill="#ffffff" height="696" stroke="#e5e7eb" stroke-width="1" width="420" x="1500" y="64" /><text class="section" x="1520" y="100">ACTIVE ITEMS</text><rect fill="#f3f4f6" height="100" rx="4" stroke="#e5e7eb" width="380" x="1520" y="130" /><text class="body" font-weight="bold" x="1535" y="160">INCIDENT #1000</text><text class="dense" x="1535" y="185">Category: High Priority</text><text class="meta" x="1535" y="210">10:42 AM • Terminal 1</text><rect fill="#f3f4f6" height="100" rx="4" stroke="#e5e7eb" width="380" x="1520" y="240" /><text class="body" font-weight="bold" x="1535" y="270">INCIDENT #1001</text><text class="dense" x="1535" y="295">Category: High Priority</text><text class="meta" x="1535" y="320">10:42 AM • Terminal 1</text><rect fill="#f3f4f6" height="100" rx="4" stroke="#e5e7eb" width="380" x="1520" y="350" /><text class="body" font-weight="bold" x="1535" y="380">INCIDENT #1002</text><text class="dense" x="1535" y="405">Category: High Priority</text><text class="meta" x="1535" y="430">10:42 AM • Terminal 1</text><rect fill="#f3f4f6" height="100" rx="4" stroke="#e5e7eb" width="380" x="1520" y="460" /><text class="body" font-weight="bold" x="1535" y="490">INCIDENT #1003</text><text class="dense" x="1535" y="515">Category: High Priority</text><text class="meta" x="1535" y="540">10:42 AM • Terminal 1</text><rect fill="#f3f4f6" height="100" rx="4" stroke="#e5e7eb" width="380" x="1520" y="570" /><text class="body" font-weight="bold" x="1535" y="600">INCIDENT #1004</text><text class="dense" x="1535" y="625">Category: High Priority</text><text class="meta" x="1535" y="650">10:42 AM • Terminal 1</text><rect fill="#f1f5f9" height="696" stroke="#e5e7eb" width="1500" x="0" y="64" /><rect fill="#cbd5e1" height="60" rx="5" width="1300" x="100" y="164" /><text fill="#64748b" font-size="24px" font-weight="bold" opacity="0.5" x="120" y="204">RUNWAY 01L/19R</text><rect fill="#cbd5e1" height="60" rx="5" width="1300" x="100" y="600" /><text fill="#64748b" font-size="24px" font-weight="bold" opacity="0.5" x="120" y="640">RUNWAY 01R/19L</text><rect fill="#e2e8f0" height="150" stroke="#64748b" stroke-width="2" width="200" x="200.0" y="337.0" /><text font-size="20px" font-weight="bold" x="260.0" y="417.0">TERMINAL T1</text><text fill="#0f766e" font-size="12px" x="265.0" y="437.0">Click to Zoom</text><rect fill="#e2e8f0" height="150" stroke="#64748b" stroke-width="2" width="200" x="650.0" y="337.0" /><text font-size="20px" font-weight="bold" x="710.0" y="417.0">TERMINAL T2</text><text fill="#0f766e" font-size="12px" x="715.0" y="437.0">Click to Zoom</text><rect fill="#e2e8f0" height="150" stroke="#64748b" stroke-width="2" width="200" x="1100.0" y="337.0" /><text font-size="20px" font-weight="bold" x="1160.0" y="417.0">TERMINAL T3</text><text fill="#0f766e" font-size="12px" x="1165.0" y="437.0">Click to Zoom</text><rect fill="#ffffff" height="320" stroke="#e5e7eb" stroke-width="1" width="1920" x="0" y="760" /><text class="section" x="20" y="792">WORKBENCH: DETAILS &amp; MEDIA</text><line stroke="#e5e7eb" x1="0" x2="1920" y1="808" y2="808" /><rect fill="#f1f5f9" height="240" stroke="#e5e7eb" stroke-width="2" width="480" x="1420" y="820" /><line stroke="#e5e7eb" stroke-width="2" x1="1420" x2="1900" y1="820" y2="1060" /><line stroke="#e5e7eb" stroke-width="2" x1="1900" x2="1420" y1="820" y2="1060" /><text fill="#0f172a" font-size="20px" font-weight="bold" x="1440" y="850">LIVE CAMERA FEED</text><circle cx="1870" cy="850" fill="#ef4444" r="8" /><text fill="#ef4444" font-size="14px" font-weight="bold" x="1845" y="855">REC</text><text class="body" x="30" y="840">Asset Status: ACTIVE</text><text class="body" x="30" y="870">Battery: 85%</text><text class="body" x="30" y="900">Assigned Task: PATROL SECTOR 4</text></svg>